<svg width="101" height="77" viewBox="0 0 101 77" fill="none" xmlns="http://www.w3.org/2000/svg">
<path d="M83.1833 44.1498C81.7793 44.1498 80.4041 44.688 79 45C79 40.4758 77.5671 34.9454 74.2909 29.0172C75.227 29.3292 76.064 29.688 77 30C77.312 30.156 77.688 30.1092 78 30.1092C79.4041 30.1092 80 29.4041 80 28V17C80 15.1279 78.5601 14.22 77 15C73.8799 16.5601 70.3908 17.3167 66.9587 17.6287C64.4626 16.8487 61.3424 19.1888 61.3424 22.3089C61.3424 24.025 62.2785 25.585 63.6825 26.3651C63.6825 26.3651 63.6825 26.5211 63.8385 26.5211C64.3065 27.1451 69.7668 35.1014 69.7668 43.9938C69.7668 48.2059 67.8947 52.1061 66.4906 54.6022C63.8385 58.9704 58.6903 56.9423 52.2941 57.4103C45.5858 57.4103 40.4376 48.5179 49.954 42.1217H50.11C51.826 42.1217 53 40.8721 53 39V33.5C53 31.7839 51.8721 31 50 31H47C47.156 30.532 47.4579 29.3292 47.4579 28.8612V4.36818C47.4579 2.02808 45.4298 0 43.0897 0C27.8011 0 26.709 0 18.2847 0C15.9446 0 13.9165 2.02808 13.9165 4.36818V29.0172C13.9165 29.4852 13.844 30.532 14 31H11.7324C9.86037 31 9 31.6279 9 33.5V39C9 40.4041 9.39236 41.6537 10.6404 42.1217C1.90406 49.922 0.5 58.5023 0.5 58.9704C0.5 59.4384 0.5 59.9064 0.812013 60.2184C1.12403 60.5304 1.53198 61 2 61H5.5C5.5 61.78 5.34399 62.376 5.5 63C5.5 63.468 5.34399 63.688 5.5 64V64.5C5.65601 65.124 6.21997 65 7 65H9C9.78003 71.2402 15.0086 76.7551 21.5608 76.7551C28.1131 76.7551 33.22 71.2402 34 65L36 65.0546C36.156 65.0546 36.844 65.656 37 65.5C37.312 67.0601 39.2839 67 41 67H63.2145C66.6467 67 70.376 64.092 71 63L74 65C74.468 71.5523 78.5031 76.7551 85.2114 76.7551C92.2317 76.7551 98.0039 71.1388 98.0039 64.1186C98.0039 61.7785 97.3799 59.5944 96.2878 57.7223C96.9119 58.0343 97.3799 58.3463 98.0039 58.8143C98.3159 58.9704 98.6279 59.1264 98.9399 59.1264C99.72 59.1264 100.5 58.5023 100.5 57.5663C100.5 57.2543 100.5 57.0983 100.344 56.7863C98.0039 49.298 91.1396 44.1498 83.1833 44.1498ZM70 19C72.4961 18.532 75.6599 17.936 78 17V28C75.5 27.5 70.5 26 68.5 25.5C71.5 23.5 70.624 20.4041 70 19ZM68 24C67.3472 24.649 66.5 25 66 25C64.5 25.5 63.3486 23.0889 63.3486 22.3089C63.3486 21.0608 64.5 18.5 66.9587 19.5C69.5 20.5 69.092 23.532 68 24ZM27 2H35V11.0764L32 9.5C31.688 9.34399 31.2332 9 30.7652 9C30.4532 9 29.812 9.34399 29.5 9.5L27 11.0764V2ZM16.1295 4.36818C16.1295 3.74415 17.72 2 18.5 2H25V11.0764C25 12.3245 25.617 13.2605 26.8651 13.2605C27.1771 13.2605 27.6451 13.1045 27.9571 12.9485L30.7652 11.2325L33.7293 12.9485C34.0413 13.1045 34.5094 13.2605 34.8214 13.2605C35.2894 13.2605 35.9134 13.1045 36.3814 12.6365C36.8495 12.1685 37.0055 11.7005 37.0055 11.0764V2H43.5C44.124 2 45.5 3.58814 45.5 4.36818V28.8612C45.5 29.4852 44.124 31 43.5 31C20 31 16.1295 31 16.1295 31V4.5V4.36818ZM11 33C11 32.844 11.156 32.844 11 33C22.5445 32.844 39.1115 33 50.5 33C50.5 33 51 33.073 51 33.229V38V39C51 39 50.156 40 50 40C38.6115 40 28.8167 40 11.5 40C11.5 40 11 39.156 11 39V33ZM21.5608 74.5C16.7246 74.5 11.78 69.5242 11 65L32 65.0546C31.376 69.5788 26.241 74.5 21.5608 74.5ZM37 63C19.3713 63 25.7847 63 8 63C6.43994 59.7239 12.4236 49.0281 23.5 47C24.436 46.844 25.064 46.5 26 46.5C35.3604 46.5 37.344 57.2543 37.5 57.4103C37.812 59.2824 38.092 61.4399 37 63ZM66.0226 64.4306C65.0866 64.8986 64.1506 65.0546 63.2145 65.0546H40.1256C39.9696 65.0546 39 65.312 39 65L39.9248 60.6864C41.4849 54.6022 36.0694 42.4337 23.1209 44.7738C15.6326 46.1778 8.34009 52.9158 6 59H3C3.93604 55.8799 6.09334 47.6162 13.7376 42H47C39.6677 48.8643 42.7777 59.7172 52.2941 59.7172C59.7824 59.4052 65.0679 61.2722 68.5 55.5C73.3362 47.6997 73.2083 38.3775 66.5 26.5211C67.124 26.6771 71.376 27.844 72 28C76.3682 34.8643 77.156 40.3518 77 45.5C76.688 53.9243 68.8307 62.8705 66.0226 64.4306ZM85.2114 74.8071C80.0632 74.8071 76.007 69.7348 75.695 64.7426C76.007 64.5866 75.844 63.312 76 63C78.4961 58.0078 83.8073 56.0062 89.2676 56.0062C89.5796 56.0062 89.8916 56.0062 90.2036 56.0062C93.0117 57.7223 96 60.6864 96 64.1186C96 69.4228 90.5156 74.8071 85.2114 74.8071ZM91 54C90.376 53.844 89.624 54 89 54C82.6037 54 77.1201 57.3838 74 63L72 61.5C75.2761 57.1318 78.376 52.1482 79 47C80.4041 46.532 81.6232 46.2937 83.1833 46.2937C91.5 46.5 96.5039 52.7863 98.0039 56.7863C96.4438 56.1623 92.5601 54.156 91 54Z" fill="#2A2A2A"/>
</svg>
