<svg width="100" height="74" viewBox="0 0 100 74" fill="none" xmlns="http://www.w3.org/2000/svg">
<path d="M17.8784 39C21.209 39.0017 24.3436 40.3795 27.1077 42.2375L30.3364 38.7375C29.2524 37.7358 27.6766 36.8667 26.4715 36.0143C26.2681 35.9357 26.0814 35.8191 25.9216 35.6706C20.9621 32.467 15.6391 30.0285 9.73495 30C9.45132 30.0305 8.99899 30.108 8.73495 30C8.47092 29.892 7.41589 29.2205 7.23495 29L0.898514 20.478C0.675224 20.2148 0.536354 19.8905 0.5 19.5472C0.463646 19.204 0.531479 18.8578 0.694679 18.5536C0.85788 18.2495 1.10887 18.0015 1.41498 17.8421C1.72108 17.6826 2.39218 16.9595 2.73495 17C3.49115 17 20.8789 16.219 31.5 20C31.773 20.0468 32.42 20.0468 32.6929 20H41C41.3221 19.9994 41.7265 19.8298 42 20C42.2735 20.1702 42.5879 20.3263 42.7297 20.6155L46 28.9336H54.1757C55.0474 28.9343 55.905 28.7139 56.6684 28.2932C57.4318 27.8724 58.0761 27.2649 58.541 26.5276L64.2811 17.797V17.4876L47.6105 10.2694C47.4012 10.1767 47.2124 10.0431 47.0554 9.87642C46.8984 9.70974 46.7763 9.51336 46.6962 9.29881C46.6162 9.08427 46.5798 8.8559 46.5893 8.6271C46.5987 8.39831 46.6538 8.17371 46.7512 7.9665L49.4667 1.88259C49.6543 1.47699 49.9925 1.16042 50.4096 1C50.8266 0.83958 51.2898 0.847929 51.7009 1.02328L65.1061 6.79783H65.3123L71.74 9.582C71.9511 9.67228 72.142 9.80396 72.3014 9.96926C72.4608 10.1346 72.5855 10.3301 72.668 10.5444L74.3364 16.2375L82.3266 16.1471C82.7824 16.1471 83.2196 16.3282 83.5419 16.6505C83.8642 16.9728 84.3364 17.2817 84.3364 17.7375V29.7375C84.3364 30.1933 83.8642 30.789 83.5419 31.1113C83.2196 31.4336 82.7824 31.6147 82.3266 31.6147H80.4705L81.0205 33.0927C87.1781 32.1032 93.4816 33.4917 98.6535 36.9768C98.8642 37.0898 99.0491 37.2456 99.1961 37.4341C99.3432 37.6226 99.4494 37.8398 99.5077 38.0717C99.5661 38.3036 99.5755 38.5451 99.5352 38.7808C99.4949 39.0165 99.4058 39.2412 99.2737 39.4406C99.1417 39.6399 98.476 39.371 98.2747 39.5C98.0733 39.629 97.7747 39.5 97.7747 39.5C97.7747 39.5 97.0056 39.062 96.7747 39C96.9609 39.15 96.5437 38.938 96.7747 39C92.5466 36.1526 87.0823 34.6064 82.0241 35.2375L83.5 40C88 40.5 90 41.5 93.5 44C96.6277 46.654 98.3521 49.9495 99 53.9999C99.6017 57.7616 97.5373 62.3076 96.5 64C94.3562 67.4972 91.9035 69.2395 88 70.5C84.0965 71.7605 81 71.5 77 70.5C73 68.4232 70.3364 67 68.2746 63.3758C66.4312 59.7114 66.2898 55.9819 67.2746 51.9999C68.2594 48.0179 71.4357 44.3828 74.7747 42L73.7747 39L72.2746 39.7375C68.5047 42.4758 65.7837 46.7033 63.903 50.9663C63.7638 51.2673 63.5404 51.5216 63.2598 51.6985C62.9793 51.8753 62.6535 51.9672 62.3219 51.9631H40.0486C39.6768 51.9631 39.3149 51.8425 39.0174 51.6194C38.72 51.3963 38.5029 51.0827 38.3987 50.7257C37.8526 49.2189 37.1619 47.7686 36.3364 46.3948L35.9583 45.7761L32.735 49C33.8447 51.3069 34.7129 53.4402 34.735 56C34.735 59.3991 34.0567 62.6034 32.1683 65.4297C30.2798 68.256 27.5957 70.4587 24.4553 71.7595C21.315 73.0603 17.8594 73.4007 14.5256 72.7375C11.1918 72.0744 8.12952 70.4376 5.72599 68.034C3.32246 65.6305 1.68564 62.5682 1.02251 59.2344C0.359375 55.9006 0.699715 52.4451 2.0005 49.3047C3.30128 46.1643 5.4087 43.8884 8.23495 42C11.0612 40.1116 14.4793 39 17.8784 39ZM22.735 54.5C22.6102 53.6327 21.8942 52.8571 21.2746 52.2375C20.655 51.6179 19.735 51 19.735 51C19.735 51 16.9857 50.9638 16.735 51C15.926 51 15.9472 51.5137 15.2746 51.9631C14.6019 52.4126 13.5842 53.4901 13.2746 54.2375C12.965 54.9849 12.5771 56.3705 12.735 57.1639C12.8928 57.9574 13.6629 59.428 14.235 60C14.807 60.572 15.9415 61.3422 16.735 61.5C17.5284 61.6578 18.9875 60.8096 19.735 60.5C20.4824 60.1904 21.8251 59.1726 22.2746 58.5C22.724 57.8274 22.735 56.809 22.735 56C22.7848 55.785 22.7162 54.7199 22.735 54.5ZM24.735 54.2375L30.235 49C29.7757 48.3471 27.6774 45.5591 27.1077 45L21.235 50C21.8146 50.5485 24.3585 53.5339 24.735 54.2375ZM32.8364 40.7375L31.735 39.8854L28.3364 43.2375C28.9059 43.7944 31.2517 47.1043 31.735 47.7375L35.3364 44.2375C34.9583 43.6188 33.8616 41.7187 33.346 41.2375L32.8364 40.7375ZM70.4904 11.8854L65.1061 9.79047L64.2811 9.19514L51.4904 3.38545L48.9904 8.38545L62.4904 14.3854C62.7016 14.4757 64.331 15.2201 64.4904 15.3854C64.6498 15.5507 65.5362 16.0359 65.6187 16.2502L66.2747 16.3854L72.3364 16.2375L70.4904 11.8854ZM82.2746 29.7375L82.3266 18.2375H75.2746L79.7746 29.7375H82.2746ZM72.668 18.2375H68.2746L75.2746 36C75.8933 35.6906 76.1559 35.4781 76.7746 35.2375L78.855 33.8854L72.668 18.2375ZM83 52C82.3202 52 81.5653 52.1223 81 52.5C80.4347 52.8777 79.7602 53.3719 79.5 54C79.2398 54.6281 78.8674 55.8332 79 56.4999C79.1326 57.1667 79.5193 58.5193 80 59C80.4807 59.4807 81.3332 59.8674 82 60C82.6668 60.1326 84.3719 60.2602 85 60C85.6281 59.7398 86.3969 58.8773 86.7746 58.3121C87.1523 57.7468 87 56.6798 87 56C87 55.0884 86.6885 53.6682 86.0439 53.0236C85.3993 52.379 83.9116 52 83 52ZM81 50.5C82.0001 49.9466 83.357 50.0105 84.5 50L81.7747 42C80.5888 42.1921 78.5958 42.5076 77.5 43L81 50.5ZM68.6843 55.8816C68.6952 58.5457 68.8734 61.011 70.3364 63.2375C71.7994 65.464 75.2368 67.3559 77.6778 68.4232C80.1188 69.4905 82.8174 69.8256 85.4453 69.3878C88.0733 68.95 90.5174 67.758 92.4805 65.957C94.4437 64.1559 95.8413 61.8233 96.5034 59.2427C97.1655 56.6622 97.0636 53.9448 96.2101 51.4211C95.3566 48.8973 93.7883 46.6759 91.6957 45.0269C89.6032 43.3779 86.6533 42.2398 84 42L86.5 51C87.5152 51.8308 88.3665 52.7532 88.7746 53.9999C89.1827 55.2467 89.102 56.5209 88.7746 57.7912C88.4472 59.0615 88.7345 58.8434 87.7746 59.7375C86.8147 60.6316 86.9067 61.2174 85.6164 61.4539C84.3261 61.6905 82.491 62.233 81.2763 61.7375C80.0617 61.2421 79.5313 61.0715 78.7746 59.9999C78.0178 58.9284 77.3353 57.8103 77.2746 56.4999C77.2139 55.1895 78 52 79.5 51.5L75.5 44C73.9057 45.2763 71.2283 47.9003 70.3364 49.7375C69.4446 51.5747 68.701 53.8394 68.6843 55.8816ZM81 40L79.7746 35.7375L77.2747 37C76.5004 37 76.3884 37.7503 75.7747 38.0717L76.7747 41C77.8298 40.5836 78.6582 40.4245 79.7746 40.2236L81 40ZM39.735 48.5C40.446 49.7009 40.2103 48.7067 40.735 50L61.735 49.9894C63.9033 45.5151 67.3753 41.1253 71.4306 38.2485L73.1167 36.9768L66.2747 18.8854L62.9904 23.8854L60 28C59.2214 29.2263 58.7743 29.8027 57.5 30.5C55.5 31 55.6283 31.0055 54.1757 31H46.5C46.1838 30.9943 45.2573 31.0553 44.9904 30.8854C44.7236 30.7156 44.6295 30.1695 44.4904 29.8854L41.5 22H32.6929C32.0135 22.0015 31.1397 22.2289 30.5 22C23.0412 19.319 8.26891 18.6563 2.73495 19L8.73495 28C15.2108 28.1612 22.0615 30.3501 27.4683 33.9176C29.4298 35.2405 31.6723 36.5764 33.346 38.2485C33.896 38.7985 34.4405 39.2667 34.9904 39.8854C35.5404 40.5041 37.0131 43.9345 37.735 45C38.4568 46.0655 38.5362 46.0032 39.0174 47L39.735 48.5ZM17.8784 71C20.1008 70.9982 22.8068 70.5329 24.7746 69.5C26.7423 68.4671 29.4712 65.828 30.735 64C31.9987 62.172 32.4638 59.3697 32.735 57.1639C33.0061 54.9582 32.058 52.8172 31.2746 50.7375L24.735 56.5C24.6544 57.9617 24.1058 58.8232 23.235 60C22.3642 61.1768 21.6093 61.9956 20.235 62.5C18.8606 63.0044 17.6054 63.4767 16.1801 63.1427C14.7547 62.8087 13.4585 62.0644 12.4514 61.0019C11.4443 59.9394 10.9922 58.6051 10.735 57.1639C10.4777 55.7228 11.1577 53.8453 11.735 52.5C12.2867 51.2142 13.2746 51.0414 13.735 50.7375C14.9567 49.931 15.271 49.0022 16.735 49C17.2806 48.9907 18.2092 48.8539 18.735 49H19.735L25.8364 43.7375C23.7535 42.512 20.1516 40.9894 17.735 41C14.0703 41.0046 10.3231 42.4055 7.73495 45C3.73495 47.5 2.7304 52.2169 2.73495 55.8816C2.73951 59.5462 4.14041 63.4119 6.73495 66C9.3295 68.5881 14.2138 71.0046 17.8784 71Z" fill="#2A2A2A"/>
</svg>
