<svg width="100" height="40" viewBox="0 0 100 40" fill="none" xmlns="http://www.w3.org/2000/svg">
<path d="M8.92419 33H14.1308V31H8.92419C7.10973 31 5.36958 29.9537 4.08655 28.6706C2.80352 27.3876 1.99999 25.6683 1.99999 23.8538L1.99998 13.5448C2.0001 13.1112 2.2384 12.6921 2.52117 12.3634C2.80395 12.0348 3.1952 11.8185 3.62388 11.7537L9.8718 10.7124L28.6468 2.47553C29.203 2.22347 29.8893 2.00191 30.5 2H47C47.1562 2 58.314 1.67372 65.8219 7.4218L65.926 7.49469L74.8189 12.8158L91.7091 17.1894C93.593 17.6657 95.2471 18.7943 96.3776 20.3747C97.5081 21.9552 98.1578 24.0632 98 26C97.8743 27.538 97.7974 28.9858 97.5 30.5C97.4831 30.578 97.0627 30.9506 97 31C96.9373 31.0494 96.9851 31.0018 96.9053 31H86.4921V33H96.9053C97.4735 33.0082 97.964 32.5739 98.4055 32.2161C98.847 31.8584 99.149 31.357 99.2586 30.7994C99.5775 29.2266 99.8138 27.6381 99.9667 26.0406C100.162 23.6186 99.4956 21.2055 98.086 19.2263C96.6764 17.2472 94.6136 15.8289 92.261 15.2213L75.4853 10.8373L67.0506 5.74528C58.9804 -0.450573 47.6404 0.00760603 47.1614 0.00760603H30.417C29.5202 0.00787636 28.6335 0.195875 27.8137 0.559505L9.12205 8.75469L3.29065 9.67105C2.36918 9.81568 1.53021 10.2862 0.926338 10.9971C0.322464 11.708 -0.00621033 12.612 8.39233e-05 13.5448V23.8538C0.00559998 26.217 0.94825 28.4816 2.62125 30.1507C4.29424 31.8197 6.56098 33 8.92419 33Z" fill="#2A2A2A"/>
<path d="M30.313 31L70.3517 31V33H30.313V31Z" fill="#2A2A2A"/>
<path d="M45.8616 0.92911L47.3635 12.9357L45.297 13.1942L43.7951 1.18761L45.8616 0.92911Z" fill="#2A2A2A"/>
<path d="M67.1757 14.9194C69.2583 14.9194 73.7568 14.6591 75.8186 12.5348L74.3295 11.0874C72.7051 12.7535 67.9775 12.9097 66.3009 12.8159L27.189 11.0041C26.9099 10.987 26.6436 10.8812 26.4288 10.7021L19.4936 4.84985L18.1503 6.44307L25.0855 12.2953C25.6522 12.7695 26.3574 13.0472 27.0953 13.0867L66.1968 14.8986L67.1757 14.9194Z" fill="#2A2A2A"/>
<path d="M22.2426 39.6611C24.0632 39.6611 25.843 39.1213 27.3568 38.1098C28.8706 37.0983 30.0504 35.6606 30.7472 33.9786C31.4439 32.2965 31.6262 30.4457 31.271 28.66C30.9158 26.8744 30.0391 25.2342 28.7517 23.9468C27.4643 22.6594 25.8241 21.7827 24.0385 21.4275C22.2528 21.0723 20.402 21.2546 18.7199 21.9513C17.0379 22.648 15.6002 23.8279 14.5887 25.3417C13.5772 26.8555 13.0373 28.6352 13.0373 30.4559C13.0428 32.8956 14.0145 35.2338 15.7396 36.9589C17.4647 38.684 19.8029 39.6556 22.2426 39.6611ZM22.2426 23.3333C23.6513 23.3333 25.0284 23.751 26.1997 24.5336C27.371 25.3163 28.284 26.4287 28.8231 27.7302C29.3622 29.0317 29.5032 30.4638 29.2284 31.8454C28.9535 33.2271 28.2752 34.4962 27.2791 35.4923C26.2829 36.4884 25.0138 37.1668 23.6322 37.4416C22.2505 37.7165 20.8184 37.5754 19.5169 37.0363C18.2154 36.4972 17.103 35.5843 16.3204 34.413C15.5377 33.2417 15.12 31.8646 15.12 30.4559C15.1227 28.5677 15.874 26.7576 17.2092 25.4225C18.5444 24.0873 20.3544 23.336 22.2426 23.3333Z" fill="#2A2A2A"/>
<path d="M22.2426 35.8394C23.3074 35.8394 24.3482 35.5236 25.2336 34.9321C26.1189 34.3405 26.8089 33.4997 27.2164 32.516C27.6239 31.5323 27.7305 30.4498 27.5228 29.4055C27.315 28.3612 26.8023 27.4019 26.0494 26.649C25.2965 25.8961 24.3372 25.3833 23.2929 25.1756C22.2486 24.9679 21.1661 25.0745 20.1824 25.4819C19.1986 25.8894 18.3578 26.5795 17.7663 27.4648C17.1747 28.3501 16.859 29.391 16.859 30.4558C16.859 31.8836 17.4262 33.2529 18.4358 34.2626C19.4454 35.2722 20.8148 35.8394 22.2426 35.8394ZM22.2426 27.1548C22.8955 27.1548 23.5337 27.3484 24.0765 27.7111C24.6194 28.0738 25.0425 28.5894 25.2923 29.1925C25.5422 29.7957 25.6075 30.4594 25.4802 31.0998C25.3528 31.7401 25.0384 32.3283 24.5768 32.7899C24.1151 33.2516 23.5269 33.566 22.8866 33.6933C22.2463 33.8207 21.5825 33.7553 20.9794 33.5055C20.3762 33.2556 19.8607 32.8325 19.4979 32.2897C19.1352 31.7469 18.9416 31.1086 18.9416 30.4558C18.9416 29.5803 19.2894 28.7407 19.9085 28.1216C20.5275 27.5026 21.3671 27.1548 22.2426 27.1548Z" fill="#2A2A2A"/>
<path d="M78.4218 35.8394C79.4866 35.8394 80.5274 35.5236 81.4128 34.9321C82.2981 34.3405 82.9881 33.4997 83.3956 32.516C83.8031 31.5323 83.9097 30.4498 83.702 29.4055C83.4942 28.3612 82.9815 27.4019 82.2286 26.649C81.4757 25.8961 80.5164 25.3833 79.4721 25.1756C78.4278 24.9679 77.3453 25.0745 76.3616 25.4819C75.3778 25.8894 74.537 26.5795 73.9455 27.4648C73.3539 28.3501 73.0382 29.391 73.0382 30.4558C73.0382 31.8836 73.6054 33.2529 74.615 34.2626C75.6246 35.2722 76.994 35.8394 78.4218 35.8394ZM78.4218 27.1548C79.0747 27.1548 79.7129 27.3484 80.2557 27.7111C80.7986 28.0738 81.2217 28.5894 81.4715 29.1925C81.7214 29.7957 81.7867 30.4594 81.6594 31.0998C81.532 31.7401 81.2176 32.3283 80.7559 32.7899C80.2943 33.2516 79.7061 33.566 79.0658 33.6933C78.4255 33.8207 77.7617 33.7553 77.1586 33.5055C76.5554 33.2556 76.0398 32.8325 75.6771 32.2897C75.3144 31.7469 75.1208 31.1086 75.1208 30.4558C75.1208 29.5803 75.4686 28.7407 76.0877 28.1216C76.7067 27.5026 77.5463 27.1548 78.4218 27.1548Z" fill="#2A2A2A"/>
<path d="M78.4219 39.6611C80.2426 39.6611 82.0223 39.1213 83.5361 38.1098C85.0499 37.0983 86.2298 35.6606 86.9265 33.9786C87.6232 32.2965 87.8055 30.4457 87.4503 28.66C87.0951 26.8744 86.2184 25.2342 84.931 23.9468C83.6437 22.6594 82.0034 21.7827 80.2178 21.4275C78.4321 21.0723 76.5813 21.2546 74.8992 21.9513C73.2172 22.648 71.7795 23.8279 70.768 25.3417C69.7565 26.8555 69.2167 28.6352 69.2167 30.4559C69.2194 32.8964 70.1901 35.2362 71.9159 36.9619C73.6416 38.6877 75.9814 39.6584 78.4219 39.6611ZM78.4219 23.3333C79.8307 23.3333 81.2077 23.751 82.379 24.5336C83.5504 25.3163 84.4633 26.4287 85.0024 27.7302C85.5415 29.0317 85.6825 30.4638 85.4077 31.8454C85.1329 33.2271 84.4545 34.4962 83.4584 35.4923C82.4623 36.4884 81.1931 37.1668 79.8115 37.4416C78.4298 37.7165 76.9977 37.5754 75.6962 37.0363C74.3947 36.4972 73.2823 35.5843 72.4997 34.413C71.717 33.2417 71.2993 31.8646 71.2993 30.4559C71.2993 28.5668 72.0497 26.7552 73.3855 25.4194C74.7212 24.0837 76.5329 23.3333 78.4219 23.3333Z" fill="#2A2A2A"/>
<path d="M55.5961 21.4901H59.5427C59.8188 21.4901 60.0837 21.3804 60.279 21.1851C60.4743 20.9898 60.584 20.725 60.584 20.4488C60.584 20.1726 60.4743 19.9078 60.279 19.7125C60.0837 19.5172 59.8188 19.4075 59.5427 19.4075H55.5961C55.3199 19.4075 55.055 19.5172 54.8597 19.7125C54.6645 19.9078 54.5547 20.1726 54.5547 20.4488C54.5547 20.725 54.6645 20.9898 54.8597 21.1851C55.055 21.3804 55.3199 21.4901 55.5961 21.4901Z" fill="#2A2A2A"/>
<path d="M38.3833 21.4901H42.3403C42.6164 21.4901 42.8813 21.3804 43.0766 21.1851C43.2719 20.9898 43.3816 20.725 43.3816 20.4488C43.3816 20.1726 43.2719 19.9078 43.0766 19.7125C42.8813 19.5172 42.6164 19.4075 42.3403 19.4075H38.3833C38.1071 19.4075 37.8422 19.5172 37.6469 19.7125C37.4517 19.9078 37.3419 20.1726 37.3419 20.4488C37.3419 20.725 37.4517 20.9898 37.6469 21.1851C37.8422 21.3804 38.1071 21.4901 38.3833 21.4901Z" fill="#2A2A2A"/>
<path d="M98.7485 26.1343L99.0922 24.0516L96.0411 23.531C95.7239 23.48 95.4368 23.3136 95.2349 23.0637C95.0331 22.8138 94.9308 22.4981 94.9477 22.1773L95.2289 17.0956L93.1462 16.9811L92.8755 22.0627C92.8205 22.8994 93.079 23.7267 93.6008 24.3831C94.1225 25.0396 94.8699 25.4783 95.6975 25.6136L98.7485 26.1343Z" fill="#2A2A2A"/>
<path d="M0.000168324 24H4.70866C5.31348 24 5.75643 23.551 6.18411 23.1233C6.61178 22.6956 7 22.1156 7 21.5108V16.5C7 15.8952 6.61178 15.1193 6.18411 14.6916C5.75643 14.2639 5.17638 14.0237 4.57156 14.0237H0.000168324V24ZM4.5 16C5 16 4.99748 16.4483 5 16.5V21.5108C4.99748 21.5624 5.03657 21.4634 5 21.5C4.96343 21.5366 5 22 4.5 22H2V16H4.5Z" fill="#2A2A2A"/>
</svg>
