<svg width="22" height="27" viewBox="0 0 22 27" fill="none" xmlns="http://www.w3.org/2000/svg">
<path fill-rule="evenodd" clip-rule="evenodd" d="M12.3333 2.00008C12.3333 1.2637 11.7363 0.666748 11 0.666748C10.2636 0.666748 9.66663 1.2637 9.66663 2.00008V3.00008H8.9234C5.95664 3.00008 3.50118 5.30676 3.31598 8.26774L3.02131 12.979C2.90896 14.7753 2.30591 16.5063 1.27783 17.9835C0.348922 19.3183 1.17588 21.1617 2.79046 21.3555L7.33329 21.9006V23.3334C7.33329 25.3585 8.97492 27.0001 11 27.0001C13.025 27.0001 14.6666 25.3585 14.6666 23.3334V21.9006L19.2095 21.3555C20.824 21.1617 21.651 19.3183 20.7221 17.9835C19.694 16.5063 19.0909 14.7753 18.9786 12.979L18.6839 8.26774C18.4987 5.30677 16.0433 3.00008 13.0765 3.00008H12.3333V2.00008ZM8.9234 5.00008C7.01273 5.00008 5.43135 6.48564 5.31208 8.39259L5.01741 13.1039C4.88222 15.2654 4.15654 17.3484 2.91941 19.126C2.85227 19.2224 2.91204 19.3557 3.02875 19.3697L8.01229 19.9677C9.99695 20.2059 12.003 20.2059 13.9876 19.9677L18.9712 19.3697C19.0879 19.3557 19.1476 19.2225 19.0805 19.126C17.8434 17.3484 17.1177 15.2654 16.9825 13.1039L16.6878 8.39259C16.5686 6.48564 14.9872 5.00008 13.0765 5.00008H8.9234ZM11 25.0001C10.0795 25.0001 9.33329 24.2539 9.33329 23.3334V22.3334H12.6666V23.3334C12.6666 24.2539 11.9204 25.0001 11 25.0001Z" fill="#2A2A2A"/>
</svg>
