<svg width="25" height="24" viewBox="0 0 25 24" fill="none" xmlns="http://www.w3.org/2000/svg">
<path fill-rule="evenodd" clip-rule="evenodd" d="M6.34047 9.85641C8.12779 13.7483 11.3083 16.8425 15.262 18.5191L15.2745 18.5244L16.0383 18.8648C17.011 19.2982 18.1542 18.9904 18.7778 18.1273L20.0522 16.3636C20.13 16.2558 20.1099 16.106 20.0065 16.0226L17.7818 14.2278C17.6712 14.1385 17.5085 14.1593 17.4239 14.2735L16.5581 15.4419C16.3478 15.7256 15.968 15.8242 15.6463 15.6786C12.6899 14.3407 10.3142 11.965 8.97622 9.00857C8.83061 8.68681 8.92921 8.30705 9.21296 8.09677L10.3813 7.23091C10.4955 7.14631 10.5163 6.98368 10.4271 6.87308L8.63202 4.64804C8.54859 4.54462 8.39884 4.52454 8.29111 4.60231L6.51782 5.88247C5.64903 6.50966 5.34307 7.6625 5.78654 8.63795L6.33988 9.85511C6.34008 9.85555 6.34027 9.85598 6.34047 9.85641ZM14.6701 19.8974C10.3741 18.0738 6.91874 14.7108 4.9767 10.481L4.97553 10.4785L4.42102 9.25874C3.68192 7.63299 4.19185 5.71158 5.63983 4.66627L7.41313 3.38611C8.16725 2.8417 9.21548 2.98231 9.79947 3.7062L11.5945 5.93125C12.2191 6.70542 12.0736 7.84381 11.2744 8.43605L10.6049 8.93221C11.7359 11.1266 13.5282 12.919 15.7226 14.0499L16.2188 13.3804C16.811 12.5812 17.9494 12.4358 18.7236 13.0603L20.9483 14.8551C21.6724 15.4393 21.8129 16.4879 21.268 17.242L19.9936 19.0058C18.9543 20.4443 17.0489 20.9572 15.4279 20.235L14.6701 19.8974Z" fill="#3532D7"/>
</svg>
