<svg width="100" height="63" viewBox="0 0 100 63" fill="none" xmlns="http://www.w3.org/2000/svg">
<path d="M2 55H10C10.7884 59.1771 15.2463 63 19.654 63C24.0618 63 28.2074 59.1771 29 55H61.3326H63H73C73.7926 59.1771 77.2609 63 81.6686 63C86.0764 63 89.2074 59.1771 90 55H98.5C99.4268 55 100 54.6544 100 53.7317V40.5043V39.9381V32.7834C100 32.3766 99.2684 31.8103 99 31.5L82 12.5C81.6813 12.1351 81.4865 12 81 12H66V4.10579C66 1.37978 64.4025 0 60.5819 0H6.99276C4.72388 0 3 1.83691 3 4.10159V39L1.71688 38.8268C0.790037 38.8268 0.039336 39.5816 0.039336 40.5043L0.0225606 44.241C0.00159126 47.9023 -0.0235719 52.5113 0.0435299 53.8156C0.0896623 54.7047 1.1109 55 2 55ZM19.654 61C16.5254 61 12 56.8604 12 53.7276C12 50.5947 16.5254 47 19.6582 47C22.791 47 27 50.5947 27 53.7276C27 56.8604 22.7826 61 19.654 61ZM29 53C28.2074 48.8187 24.066 45 19.6582 45C15.2505 45 10.7926 48.8187 10 53H2C1.98322 51.0121 1.98322 46.8957 2 44.241V41H30.8642H39.2435H64V53H61.3326H29ZM98 40V40.5043V47H95C94.0732 47 93.5 47.0774 93.5 48C93.5 48.9226 94.0238 49 94.9464 49H98V53H90C89.2116 48.8187 86.0764 46 81.6686 46C77.2609 46 73.7926 48.8187 73 53H66V40.5V35.6772V33H98V40ZM81.6686 61C78.54 61 75 56.6328 75 53.5C75 50.3672 78.5358 48.0491 81.6686 48.0491C84.8014 48.0491 88 50.5989 88 53.7317C88 56.8646 84.7972 61 81.6686 61ZM96.2298 30.9633H66V14H81L96.2298 30.9633ZM5 4C5 3.58481 6.57642 2 7 2H60.5C62.9031 2 64 3.80803 64 4.10579V13C64 13.021 64 13.1855 64 13.2065C64 13.2274 64 13.9748 64 14V35.6772V39H39.2435H31H5V4Z" fill="#2A2A2A"/>
</svg>
