<svg width="25" height="24" viewBox="0 0 25 24"  xmlns="http://www.w3.org/2000/svg">
<path d="M15.9999 12C15.9999 11.1716 16.6715 10.5 17.4999 10.5C18.3284 10.5 18.9999 11.1716 18.9999 12C18.9999 12.8284 18.3284 13.5 17.4999 13.5C16.6715 13.5 15.9999 12.8284 15.9999 12Z" />
<path fill-rule="evenodd" clip-rule="evenodd" d="M20.9413 6.67402C20.2835 5.12836 18.8301 4.01723 17.1006 3.83523L16.4487 3.76664C13.1564 3.42018 9.83569 3.44303 6.54844 3.83475L6.1165 3.88622C4.44771 4.08508 3.12546 5.38889 2.90318 7.05473C2.46522 10.337 2.46522 13.663 2.90318 16.9453C3.12546 18.6111 4.44771 19.9149 6.11651 20.1138L6.54845 20.1653C9.83569 20.557 13.1564 20.5798 16.4487 20.2334L17.1006 20.1648C18.8301 19.9828 20.2835 18.8717 20.9413 17.326C21.9805 17.0166 22.7737 16.1156 22.9039 15.0024C23.1372 13.0076 23.1372 10.9924 22.9039 8.99764C22.7737 7.88442 21.9805 6.98344 20.9413 6.67402ZM16.2918 5.2584C13.1107 4.92365 9.90212 4.94573 6.72593 5.32421L6.29399 5.37568C5.30518 5.49351 4.52171 6.26606 4.39 7.25312C3.96961 10.4038 3.96961 13.5963 4.39 16.7469C4.52171 17.734 5.30518 18.5065 6.294 18.6243L6.72594 18.6758C9.90212 19.0543 13.1107 19.0764 16.2918 18.7416L16.9436 18.673C17.7942 18.5835 18.5468 18.1643 19.0683 17.542C17.5601 17.6299 16.0319 17.5906 14.5417 17.4241C13.2723 17.2822 12.2457 16.2826 12.096 15.0024C11.8627 13.0076 11.8627 10.9924 12.096 8.99764C12.2457 7.71738 13.2723 6.71784 14.5417 6.57597C16.0319 6.40942 17.5601 6.37012 19.0683 6.45806C18.5467 5.83574 17.7942 5.4165 16.9436 5.327L16.2918 5.2584ZM19.7773 8.01471C19.7779 8.01855 19.7785 8.02239 19.7791 8.02623L19.7852 8.06511L19.9838 8.03426C20.0866 8.04444 20.1892 8.05524 20.2916 8.06669C20.879 8.13234 21.3468 8.59648 21.4141 9.17189C21.6338 11.0509 21.6338 12.9491 21.4141 14.8281C21.3468 15.4035 20.879 15.8677 20.2916 15.9333C20.1892 15.9448 20.0866 15.9556 19.9838 15.9658L19.7852 15.9349L19.7791 15.9738C19.7785 15.9776 19.7779 15.9815 19.7773 15.9853C18.0987 16.1372 16.3771 16.1199 14.7083 15.9333C14.1209 15.8677 13.6531 15.4035 13.5858 14.8281C13.3661 12.9491 13.3661 11.0509 13.5858 9.17189C13.6531 8.59648 14.1209 8.13234 14.7083 8.06669C16.3771 7.88017 18.0987 7.86285 19.7773 8.01471Z" />
</svg>
